# xmcd
#
# Track frame offsets:
#	150
#	19532
#	30479
#	59739
#	72347
#	93778
#	110838
#	119539
#	138682
#	163975
#	189723
#
# Disc length: 2817 seconds
#
# Revision: 0
# Processed by: cddbd v1.4PL0 Copyright (c) Steve Scherf et al.
# Submitted via: dBpowerAMP V4.0
#
DISCID=a30aff0b
DTITLE=Gary Moore - After Hours
DYEAR=1900
DGENRE=Blues
TTITLE0=Cold Day In Hell
TTITLE1=Don't You Lie To Me (I Get Evil)
TTITLE2=Story Of The Blues
TTITLE3=Since I Met You Baby
TTITLE4=Separate Ways
TTITLE5=Only Fool In Town
TTITLE6=Key To Love
TTITLE7=Jumpin' At Shadows
TTITLE8=The Blues Is Alright
TTITLE9=The Hurt Inside
TTITLE10=Nothing's The Same
EXTD=
EXTT0=
EXTT1=
EXTT2=
EXTT3=
EXTT4=
EXTT5=
EXTT6=
EXTT7=
EXTT8=
EXTT9=
EXTT10=
PLAYORDER=
